<svg version="1.1" id="el_98ZCAxUgk" xmlns="http://www.w3.org/2000/svg" xmlns:xlink="http://www.w3.org/1999/xlink" x="0px" y="0px" viewBox="0 0 100 91" style="enable-background:new 0 0 100 91;" xml:space="preserve"><style>@-webkit-keyframes kf_el_LGDVKILfse_an_Yczo_i9qN{93.69%{opacity: 1;}94.59%{opacity: 0;}0%{opacity: 1;}100%{opacity: 0;}}@keyframes kf_el_LGDVKILfse_an_Yczo_i9qN{93.69%{opacity: 1;}94.59%{opacity: 0;}0%{opacity: 1;}100%{opacity: 0;}}@-webkit-keyframes kf_el_6HVC3LYrMk_an_hjaM6CI-P{0%{opacity: 0;}93.69%{opacity: 0;}94.59%{opacity: 1;}100%{opacity: 1;}}@keyframes kf_el_6HVC3LYrMk_an_hjaM6CI-P{0%{opacity: 0;}93.69%{opacity: 0;}94.59%{opacity: 1;}100%{opacity: 1;}}#el_98ZCAxUgk *{-webkit-animation-duration: 3.7s;animation-duration: 3.7s;-webkit-animation-iteration-count: infinite;animation-iteration-count: infinite;-webkit-animation-timing-function: cubic-bezier(0, 0, 1, 1);animation-t iming-function: cubic-bezier(0, 0, 1, 1);}#el_4e4gzm5CMq{fill: #FAE4C9;}#el_F1DW3ZOYEr{fill: #FAE4C9;}#el_BIcxSvJ7n1{fill: #FAE4C9;}#el_6HVC3LYrMk{-webkit-animation-fill-mode: backwards;animation-fill-mode: backwards;opacity: 0;-webkit-animation-name: kf_el_6HVC3LYrMk_an_hjaM6CI-P;animation-name: kf_el_6HVC3LYrMk_an_hjaM6CI-P;-webkit-animation-timing-function: cubic-bezier(0, 0, 1, 1);animation-timing-function: cubic-bezier(0, 0, 1, 1);}#el_LGDVKILfse{-webkit-animation-fill-mode: backwards;animation-fill-mode: backwards;opacity: 1;-webkit-animation-name: kf_el_LGDVKILfse_an_Yczo_i9qN;animation-name: kf_el_LGDVKILfse_an_Yczo_i9qN;-webkit-animation-timing-function: cubic-bezier(0, 0, 1, 1);animation-timing-function: cubic-bezier(0, 0, 1, 1);}</style>
<!-- <style type="text/css">@-webkit-keyframes kf_el_LGDVKILfse_an_Yczo_i9qN{93.69%{opacity: 1;}94.59%{opacity: 0;}0%{opacity: 1;}100%{opacity: 0;}}@keyframes kf_el_LGDVKILfse_an_Yczo_i9qN{93.69%{opacity: 1;}94.59%{opacity: 0;}0%{opacity: 1;}100%{opacity: 0;}}@-webkit-keyframes kf_el_6HVC3LYrMk_an_hjaM6CI-P{0%{opacity: 0;}93.69%{opacity: 0;}94.59%{opacity: 1;}100%{opacity: 1;}}@keyframes kf_el_6HVC3LYrMk_an_hjaM6CI-P{0%{opacity: 0;}93.69%{opacity: 0;}94.59%{opacity: 1;}100%{opacity: 1;}}#el_98ZCAxUgk *{-webkit-animation-duration: 3.7s;animation-duration: 3.7s;-webkit-animation-iteration-count: infinite;animation-iteration-count: infinite;-webkit-animation-timing-function: cubic-bezier(0, 0, 1, 1);animation-timing-function: cubic-bezier(0, 0, 1, 1);}#el_4e4gzm5CMq{fill: #FAE4C9;}#el_F1DW3ZOYEr{fill: #FAE4C9;}#el_BIcxSvJ7n1{fill: #FAE4C9;}#el_6HVC3LYrMk{-webkit-animation-fill-mode: backwards;animation-fill-mode: backwards;opacity: 0;-webkit-animation-name: kf_el_6HVC3LYrMk_an_hjaM6CI-P;animation-name: kf_el_6HVC3LYrMk_an_hjaM6CI-P;-webkit-animation-timing-function: cubic-bezier(0, 0, 1, 1);animation-timing-function: cubic-bezier(0, 0, 1, 1);}#el_LGDVKILfse{-webkit-animation-fill-mode: backwards;animation-fill-mode: backwards;opacity: 1;-webkit-animation-name: kf_el_LGDVKILfse_an_Yczo_i9qN;animation-name: kf_el_LGDVKILfse_an_Yczo_i9qN;-webkit-animation-timing-function: cubic-bezier(0, 0, 1, 1);animation-timing-function: cubic-bezier(0, 0, 1, 1);}</style> -->
<g id="el_6HVC3LYrMk">
	<path d="M84.102,56.073l7.549,7.549l1.497-1.497l-7.488-7.488c3.606-3.519,6.044-7.314,6.688-10.89l0.098-0.543&#10;&#9;&#9;l-0.388-0.391c-18.83-18.957-36.969-23.016-52.042-20.21c-14.996,2.792-26.772,12.344-33.048,20.3l-0.454,0.576l0.38,0.628&#10;&#9;&#9;c2.172,3.592,4.509,6.738,6.972,9.475l-7.938,8.572l1.554,1.438l7.834-8.461c2.397,2.462,4.904,4.552,7.489,6.316l-7.463,11.858&#10;&#9;&#9;l1.609,1.012l7.446-11.831c2.327,1.451,4.709,2.652,7.127,3.61c0.934,0.37,1.873,0.696,2.815,0.997l-4.686,13.611l2.002,0.689&#10;&#9;&#9;l4.717-13.7c3.198,0.856,6.419,1.335,9.615,1.496l-1.54,14.914l2.106,0.217l1.556-15.07c2.861,0.02,5.689-0.206,8.45-0.641&#10;&#9;&#9;l1.576,15.756l2.107-0.211l-1.591-15.912c0.048-0.01,0.097-0.017,0.146-0.027c3.004-0.601,5.907-1.454,8.679-2.481l4.103,16.439&#10;&#9;&#9;l2.07-0.517l-4.171-16.711c2.679-1.105,5.21-2.371,7.54-3.765L84.05,74.91l1.674-0.858l-7.107-13.867&#10;&#9;&#9;c0.955-0.618,1.883-1.249,2.758-1.902C82.334,57.567,83.242,56.827,84.102,56.073z" id="el_4e4gzm5CMq"/>
</g>
<g id="el_LGDVKILfse">
	<g id="el_Mf5YAbyGdw">
		<path d="M89.523,40.258c-1.182-1.142-2.466-2.289-3.842-3.427l9.965-9.795l-1.489-1.515l-10.145,9.971&#10;&#9;&#9;&#9;c-0.673-0.523-1.361-1.041-2.072-1.553c-1.817-1.344-3.624-2.561-5.419-3.655l8.696-13.817l-1.798-1.132l-8.731,13.872&#10;&#9;&#9;&#9;c-3.332-1.888-6.616-3.365-9.838-4.475l4.897-14.223l-2.009-0.692l-4.91,14.261c-3.234-0.971-6.4-1.577-9.482-1.87L54.906,7.1&#10;&#9;&#9;&#9;l-2.114-0.218l-1.567,15.171c-0.789-0.039-1.572-0.06-2.349-0.06c-2.103,0-4.155,0.149-6.158,0.413l-1.557-15.57l-2.114,0.211&#10;&#9;&#9;&#9;l1.568,15.681c-3.115,0.553-6.092,1.396-8.912,2.458L27.707,9.175L25.646,9.69l4.066,16.293c-2.15,0.91-4.203,1.937-6.143,3.056&#10;&#9;&#9;&#9;c-0.458,0.264-0.893,0.546-1.339,0.819L14.34,14.466l-1.891,0.969L20.427,31c-1.958,1.3-3.777,2.676-5.459,4.089l-9.563-9.562&#10;&#9;&#9;&#9;L3.904,27.03l9.457,9.457c-2.471,2.23-4.603,4.51-6.318,6.683l-0.456,0.578l0.381,0.63C12.58,53.66,19.3,59.989,26.481,63.98&#10;&#9;&#9;&#9;c7.18,3.992,14.805,5.641,22.202,5.64c10.93-0.003,21.367-3.578,29.359-8.52c3.997-2.474,7.384-5.29,9.92-8.207&#10;&#9;&#9;&#9;c2.532-2.918,4.23-5.936,4.765-8.878l0.098-0.544l-0.39-0.392C91.462,42.099,90.492,41.16,89.523,40.258z M35.324,60.07&#10;&#9;&#9;&#9;c-3.7-3.702-5.986-8.805-5.986-14.452c0-5.076,1.858-9.702,4.918-13.276c4.885-1.261,10.188-2.052,15.823-2.049&#10;&#9;&#9;&#9;c4.805,0.002,9.852,0.578,15.085,1.904c3.137,3.594,5.049,8.275,5.05,13.421c-0.001,5.647-2.286,10.75-5.986,14.452&#10;&#9;&#9;&#9;c-3.702,3.7-8.805,5.986-14.452,5.986C44.129,66.055,39.026,63.77,35.324,60.07z M9.375,44.221&#10;&#9;&#9;&#9;c4.979-3.664,12.38-8.06,21.502-10.922c-2.314,3.543-3.664,7.772-3.664,12.32c0.001,10.091,6.625,18.632,15.763,21.517&#10;&#9;&#9;&#9;c-5.224-0.65-10.454-2.228-15.463-5.013C20.92,58.456,14.697,52.703,9.375,44.221z M86.358,51.5&#10;&#9;&#9;&#9;c-3.546,4.084-9.044,8.107-15.615,11.081c-3.883,1.76-8.146,3.142-12.597,3.99c8.316-3.325,14.193-11.449,14.194-20.952&#10;&#9;&#9;&#9;c0-4.6-1.38-8.876-3.744-12.444c7.02,2.201,14.346,5.803,21.858,11.262C89.87,46.636,88.468,49.076,86.358,51.5z" id="el_F1DW3ZOYEr"/>
		<path d="M49.774,32.724c-7.121,0-12.893,5.772-12.893,12.893S42.654,58.51,49.774,58.51&#10;&#9;&#9;&#9;c7.12,0,12.893-5.772,12.893-12.893S56.895,32.724,49.774,32.724z" id="el_BIcxSvJ7n1"/>
	</g>
</g>
</svg>