<?xml version="1.0" standalone="no"?>
<!DOCTYPE svg PUBLIC "-//W3C//DTD SVG 20010904//EN"
 "http://www.w3.org/TR/2001/REC-SVG-20010904/DTD/svg10.dtd">
<svg version="1.0" xmlns="http://www.w3.org/2000/svg"
 width="264.000000pt" height="264.000000pt" viewBox="0 0 264.000000 264.000000"
 preserveAspectRatio="xMidYMid meet">
<g transform="translate(0.000000,264.000000) scale(0.100000,-0.100000)"
fill="#000000" stroke="none">
<path d="M385 2621 c-182 -52 -327 -201 -369 -381 -23 -96 -23 -1742 0 -1839
39 -170 157 -301 335 -374 l54 -22 890 -2 c982 -3 945 -5 1070 60 127 67 239
218 265 356 6 34 10 374 10 905 -1 937 0 921 -63 1039 -60 114 -154 195 -288
250 l-54 22 -895 2 c-823 2 -900 0 -955 -16z"/>
</g>
</svg>
